<svg width="8" height="13" viewBox="0 0 8 13" fill="none" xmlns="http://www.w3.org/2000/svg">
<path d="M3.88167 5.59583C2.27375 5.17792 1.75667 4.74583 1.75667 4.07292C1.75667 3.30083 2.47208 2.7625 3.66917 2.7625C4.93 2.7625 5.3975 3.36458 5.44 4.25H7.00542C6.95583 3.03167 6.21208 1.9125 4.73167 1.55125V0H2.60667V1.53C1.2325 1.8275 0.1275 2.72 0.1275 4.08708C0.1275 5.72333 1.48042 6.53792 3.45667 7.0125C5.2275 7.4375 5.58167 8.06083 5.58167 8.71958C5.58167 9.20833 5.23458 9.9875 3.66917 9.9875C2.21 9.9875 1.63625 9.33583 1.55833 8.5H0C0.085 10.0512 1.24667 10.9225 2.60667 11.2129V12.75H4.73167V11.2271C6.11292 10.965 7.21083 10.1646 7.21083 8.7125C7.21083 6.70083 5.48958 6.01375 3.88167 5.59583Z" fill="#494949"/>
</svg>
