<svg width="17" height="12" viewBox="0 0 17 12" fill="none" xmlns="http://www.w3.org/2000/svg">
<path d="M8.5 0C4.63636 0 1.33682 2.488 0 6C1.33682 9.512 4.63636 12 8.5 12C12.3636 12 15.6632 9.512 17 6C15.6632 2.488 12.3636 0 8.5 0ZM8.5 10C6.36727 10 4.63636 8.208 4.63636 6C4.63636 3.792 6.36727 2 8.5 2C10.6327 2 12.3636 3.792 12.3636 6C12.3636 8.208 10.6327 10 8.5 10ZM8.5 3.6C7.21727 3.6 6.18182 4.672 6.18182 6C6.18182 7.328 7.21727 8.4 8.5 8.4C9.78273 8.4 10.8182 7.328 10.8182 6C10.8182 4.672 9.78273 3.6 8.5 3.6Z" fill="white"/>
</svg>
