<svg version="1.2" xmlns="http://www.w3.org/2000/svg" viewBox="0 0 9 15" width="9" height="15">
	<title>go-back-svg</title>
	<style>
		.s0 { fill: #143358 } 
	</style>
	<path id="Layer" class="s0" d="m5.5 7.5l-5.1 5.1c-0.2 0.2-0.4 0.6-0.4 1 0 0.4 0.2 0.7 0.4 1q0.2 0.2 0.5 0.3 0.3 0.1 0.5 0.1 0.3 0 0.6-0.1 0.3-0.1 0.5-0.3l6.1-6.1q0.2-0.2 0.3-0.4 0.1-0.3 0.1-0.6 0-0.3-0.1-0.5-0.1-0.3-0.3-0.5l-6.1-6.1q-0.2-0.2-0.5-0.3-0.3-0.1-0.6-0.1-0.2 0-0.5 0.1-0.3 0.1-0.5 0.3c-0.2 0.3-0.4 0.6-0.4 1 0 0.4 0.2 0.8 0.4 1z"/>
</svg>